<svg width="32" height="32" viewBox="0 0 32 32" fill="none" xmlns="http://www.w3.org/2000/svg">
    <path fill-rule="evenodd" clipRule="evenodd"
        d="M22.2345 3.50406C18.0396 2.56635 13.6894 2.56635 9.49451 3.50406L9.04251 3.60406C7.86253 3.86788 6.77879 4.45364 5.91167 5.29628C5.04455 6.13892 4.428 7.20545 4.13051 8.37739C3.06717 12.5674 3.06717 16.9567 4.13051 21.1467C4.41421 22.2644 4.98838 23.2872 5.79482 24.1114C6.60126 24.9357 7.61129 25.532 8.72251 25.8401L9.34251 29.5414C9.3623 29.6589 9.41324 29.769 9.49002 29.8602C9.5668 29.9513 9.66662 30.0202 9.77908 30.0597C9.89154 30.0992 10.0125 30.1078 10.1294 30.0847C10.2464 30.0615 10.3549 30.0074 10.4438 29.9281L14.0852 26.6707C16.8186 26.8375 19.562 26.6189 22.2345 26.0214L22.6878 25.9214C23.8678 25.6576 24.9516 25.0718 25.8187 24.2292C26.6858 23.3865 27.3024 22.32 27.5998 21.1481C28.6631 16.958 28.6631 12.5688 27.5998 8.37873C27.3023 7.20662 26.6855 6.13997 25.8181 5.29731C24.9508 4.45465 23.8667 3.86899 22.6865 3.60539L22.2345 3.50406ZM10.6198 8.26939C10.372 8.23333 10.1194 8.2832 9.90384 8.41073H9.88518C9.38518 8.70406 8.93451 9.07339 8.55051 9.50806C8.23051 9.87739 8.05718 10.2507 8.01184 10.6107C7.98518 10.8241 8.00384 11.0401 8.06651 11.2441L8.09051 11.2574C8.45051 12.3147 8.91984 13.3321 9.49318 14.2894C10.2324 15.634 11.1422 16.8777 12.1998 17.9894L12.2318 18.0347L12.2825 18.0721L12.3132 18.1081L12.3505 18.1401C13.4661 19.2009 14.7127 20.115 16.0598 20.8601C17.5998 21.6987 18.5345 22.0947 19.0958 22.2601V22.2681C19.2598 22.3187 19.4092 22.3414 19.5598 22.3414C20.0379 22.3061 20.4904 22.1117 20.8452 21.7894C21.2785 21.4054 21.6452 20.9534 21.9305 20.4507V20.4414C22.1985 19.9347 22.1078 19.4574 21.7212 19.1334C20.9445 18.4548 20.1047 17.852 19.2132 17.3334C18.6158 17.0094 18.0092 17.2054 17.7638 17.5334L17.2398 18.1947C16.9705 18.5227 16.4825 18.4774 16.4825 18.4774L16.4692 18.4854C12.8278 17.5561 11.8558 13.8694 11.8558 13.8694C11.8558 13.8694 11.8105 13.3681 12.1478 13.1121L12.8038 12.5841C13.1185 12.3281 13.3372 11.7227 12.9998 11.1254C12.4847 10.2331 11.8831 9.3935 11.2038 8.61873C11.0557 8.43639 10.8479 8.3122 10.6172 8.26806L10.6198 8.26939ZM16.7718 6.66673C16.595 6.66673 16.4255 6.73697 16.3004 6.86199C16.1754 6.98701 16.1052 7.15658 16.1052 7.33339C16.1052 7.5102 16.1754 7.67977 16.3004 7.8048C16.4255 7.92982 16.595 8.00006 16.7718 8.00006C18.4585 8.00006 19.8585 8.55073 20.9665 9.60673C21.5358 10.1841 21.9798 10.8681 22.2705 11.6174C22.5625 12.3681 22.6958 13.1694 22.6612 13.9721C22.6575 14.0596 22.6711 14.147 22.7012 14.2293C22.7313 14.3116 22.7773 14.3872 22.8366 14.4517C22.9564 14.5819 23.123 14.6593 23.2998 14.6667C23.4767 14.6742 23.6492 14.611 23.7794 14.4913C23.9097 14.3715 23.9871 14.2049 23.9945 14.0281C24.0359 13.0407 23.872 12.0555 23.5132 11.1347C23.1528 10.2096 22.6064 9.36822 21.9078 8.66273L21.8945 8.64939C20.5198 7.33606 18.7798 6.66673 16.7718 6.66673ZM16.7265 8.85873C16.5497 8.85873 16.3801 8.92897 16.2551 9.05399C16.1301 9.17901 16.0598 9.34858 16.0598 9.52539C16.0598 9.70221 16.1301 9.87177 16.2551 9.9968C16.3801 10.1218 16.5497 10.1921 16.7265 10.1921H16.7492C17.9652 10.2787 18.8505 10.6841 19.4705 11.3494C20.1065 12.0347 20.4358 12.8867 20.4105 13.9401C20.4064 14.1169 20.4728 14.2881 20.5949 14.416C20.7171 14.5439 20.885 14.618 21.0618 14.6221C21.2387 14.6261 21.4098 14.5598 21.5377 14.4376C21.6656 14.3155 21.7398 14.1475 21.7438 13.9707C21.7758 12.5881 21.3305 11.3947 20.4478 10.4427V10.4401C19.5452 9.47206 18.3065 8.96006 16.8158 8.86006L16.7932 8.85739L16.7265 8.85873ZM16.7012 11.0921C16.612 11.0842 16.5221 11.0944 16.4369 11.122C16.3517 11.1496 16.2729 11.1942 16.2053 11.2529C16.1377 11.3117 16.0826 11.3834 16.0434 11.4639C16.0041 11.5444 15.9815 11.632 15.9768 11.7215C15.9722 11.8109 15.9856 11.9004 16.0162 11.9845C16.0469 12.0687 16.0942 12.1458 16.1554 12.2112C16.2165 12.2767 16.2902 12.3291 16.3721 12.3655C16.4539 12.4018 16.5423 12.4213 16.6318 12.4227C17.1892 12.4521 17.5452 12.6201 17.7692 12.8454C17.9945 13.0721 18.1625 13.4361 18.1932 14.0054C18.1948 14.0949 18.2145 14.1831 18.251 14.2648C18.2875 14.3465 18.34 14.42 18.4055 14.481C18.471 14.542 18.5481 14.5891 18.6322 14.6196C18.7163 14.6502 18.8057 14.6635 18.8951 14.6587C18.9844 14.654 19.0719 14.6313 19.1523 14.592C19.2327 14.5527 19.3044 14.4977 19.3631 14.4301C19.4217 14.3626 19.4662 14.2839 19.4938 14.1988C19.5215 14.1137 19.5317 14.0239 19.5238 13.9347C19.4812 13.1347 19.2305 12.4281 18.7172 11.9081C18.2012 11.3881 17.4985 11.1347 16.7012 11.0921Z"
        fill="#111827" />
</svg>