<?xml version="1.0" encoding="UTF-8"?>
<svg xmlns="http://www.w3.org/2000/svg" style="display: none;">
    <symbol viewBox="0 0 36 36" id="cart">
        <path
            d="M35.7068 9.98438C35.6036 9.83782 35.4667 9.71821 35.3077 9.6356C35.1486 9.55299 34.972 9.50981 34.7928 9.5097H10.9169L9.1096 3.2772C8.40085 0.823008 6.71669 0.55807 6.02594 0.55807H1.207C0.589344 0.55807 0.0898438 1.05813 0.0898438 1.6752C0.0898438 2.29226 0.589906 2.79229 1.20697 2.79229H6.02534C6.17778 2.79229 6.64297 2.79229 6.96025 3.8886L13.1776 26.7379C13.3126 27.22 13.7519 27.5529 14.253 27.5529H29.4394C29.9108 27.5529 30.3315 27.2576 30.4908 26.8138L35.8435 11.0048C35.9667 10.6622 35.9155 10.2808 35.7068 9.98438H35.7068ZM28.6532 25.3193H15.101L11.5448 11.7445H33.2045L28.6532 25.3193ZM26.4376 29.8171C24.884 29.8171 23.6251 31.0759 23.6251 32.6296C23.6251 34.1832 24.884 35.4421 26.4376 35.4421C27.9912 35.4421 29.2501 34.1832 29.2501 32.6296C29.2501 31.0759 27.9912 29.8171 26.4376 29.8171ZM16.3126 29.8171C14.759 29.8171 13.5001 31.0759 13.5001 32.6296C13.5001 34.1832 14.759 35.4421 16.3126 35.4421C17.8662 35.4421 19.1251 34.1832 19.1251 32.6296C19.1251 31.0759 17.8662 29.8171 16.3126 29.8171Z"
            fill="#111827" />
    </symbol>
    <symbol viewBox="0 0 36 36" fill="none" id="user">
        <path
            d="M6 27C6 25.4087 6.63214 23.8826 7.75736 22.7574C8.88258 21.6321 10.4087 21 12 21H24C25.5913 21 27.1174 21.6321 28.2426 22.7574C29.3679 23.8826 30 25.4087 30 27C30 27.7956 29.6839 28.5587 29.1213 29.1213C28.5587 29.6839 27.7956 30 27 30H9C8.20435 30 7.44129 29.6839 6.87868 29.1213C6.31607 28.5587 6 27.7956 6 27Z"
            stroke-width="2" stroke-linejoin="round" />
        <path
            d="M18 15C20.4853 15 22.5 12.9853 22.5 10.5C22.5 8.01472 20.4853 6 18 6C15.5147 6 13.5 8.01472 13.5 10.5C13.5 12.9853 15.5147 15 18 15Z"
            stroke-width="2" />
    </symbol>
    <symbol viewBox="0 0 16 9" fill="none" id="arrow">
        <path d="M1.3335 1.33325L8.00016 7.99992L14.6668 1.33325" stroke="#111827" stroke-width="1.33333"
            stroke-linecap="round" stroke-linejoin="round" />
    </symbol>
    <symbol id="edit" viewBox="0 0 25 25">
        <path
            d="M22 13C22 12.7348 22.1054 12.4804 22.2929 12.2929C22.4804 12.1054 22.7348 12 23 12C23.2652 12 23.5196 12.1054 23.7071 12.2929C23.8946 12.4804 24 12.7348 24 13V24C24 24.2652 23.8946 24.5196 23.7071 24.7071C23.5196 24.8947 23.2652 25 23 25H1C0.734784 25 0.48043 24.8947 0.292893 24.7071C0.105357 24.5196 0 24.2652 0 24V2.00001C0 1.7348 0.105357 1.48044 0.292893 1.29291C0.48043 1.10537 0.734784 1.00001 1 1.00001H12C12.2652 1.00001 12.5196 1.10537 12.7071 1.29291C12.8946 1.48044 13 1.7348 13 2.00001C13 2.26523 12.8946 2.51958 12.7071 2.70712C12.5196 2.89465 12.2652 3.00001 12 3.00001H2V23H22V13Z" />
        <path
            d="M10.686 14.32L12.336 14.084L22.472 3.95001C22.5675 3.85776 22.6437 3.74742 22.6961 3.62542C22.7485 3.50341 22.7761 3.37219 22.7773 3.23941C22.7784 3.10663 22.7531 2.97495 22.7028 2.85206C22.6525 2.72916 22.5783 2.61751 22.4844 2.52362C22.3905 2.42972 22.2789 2.35547 22.156 2.30519C22.0331 2.25491 21.9014 2.22961 21.7686 2.23076C21.6358 2.23192 21.5046 2.2595 21.3826 2.31191C21.2606 2.36432 21.1502 2.4405 21.058 2.53601L10.92 12.67L10.684 14.32H10.686ZM23.886 1.12001C24.1648 1.39861 24.3859 1.72942 24.5368 2.09352C24.6877 2.45762 24.7654 2.84788 24.7654 3.24201C24.7654 3.63614 24.6877 4.0264 24.5368 4.39051C24.3859 4.75461 24.1648 5.08541 23.886 5.36401L13.516 15.734C13.3631 15.8875 13.1645 15.9872 12.95 16.018L9.65 16.49C9.49621 16.5121 9.33938 16.498 9.19197 16.449C9.04455 16.3999 8.9106 16.3171 8.80074 16.2073C8.69087 16.0974 8.60812 15.9635 8.55904 15.816C8.50997 15.6686 8.49591 15.5118 8.518 15.358L8.99 12.058C9.0203 11.8438 9.11925 11.6452 9.272 11.492L19.644 1.12201C20.2066 0.559599 20.9695 0.243652 21.765 0.243652C22.5605 0.243652 23.3234 0.559599 23.886 1.12201V1.12001Z" />
    </symbol>
    <symbol id="delete" viewBox="0 0 27 28">
        <path
            d="M10.833 4.99996V5.33329H16.1663V4.99996C16.1663 4.29272 15.8854 3.61444 15.3853 3.11434C14.8852 2.61424 14.2069 2.33329 13.4997 2.33329C12.7924 2.33329 12.1142 2.61424 11.6141 3.11434C11.114 3.61444 10.833 4.29272 10.833 4.99996ZM9.16634 5.33329V4.99996C9.16634 3.85069 9.62289 2.74849 10.4355 1.93583C11.2482 1.12317 12.3504 0.666626 13.4997 0.666626C14.6489 0.666626 15.7511 1.12317 16.5638 1.93583C17.3765 2.74849 17.833 3.85069 17.833 4.99996V5.33329H25.333C25.554 5.33329 25.766 5.42109 25.9223 5.57737C26.0785 5.73365 26.1663 5.94561 26.1663 6.16663C26.1663 6.38764 26.0785 6.5996 25.9223 6.75588C25.766 6.91216 25.554 6.99996 25.333 6.99996H23.3883L22.055 22.904C21.9537 24.1117 21.4024 25.2373 20.5102 26.0577C19.6181 26.8781 18.4503 27.3334 17.2383 27.3333H9.76101C8.54914 27.3332 7.38152 26.8778 6.48954 26.0575C5.59756 25.2371 5.0463 24.1116 4.94501 22.904L3.61167 6.99996H1.66634C1.44533 6.99996 1.23337 6.91216 1.07709 6.75588C0.920805 6.5996 0.833008 6.38764 0.833008 6.16663C0.833008 5.94561 0.920805 5.73365 1.07709 5.57737C1.23337 5.42109 1.44533 5.33329 1.66634 5.33329H9.16634ZM6.60567 22.7646C6.67204 23.5558 7.03321 24.2933 7.61761 24.8307C8.20202 25.3682 8.96702 25.6666 9.76101 25.6666H17.2383C18.0324 25.6667 18.7976 25.3685 19.3822 24.831C19.9667 24.2935 20.328 23.556 20.3943 22.7646L21.7157 6.99996H5.28367L6.60567 22.7646ZM11.833 11.5C11.833 11.3905 11.8115 11.2822 11.7696 11.1811C11.7277 11.08 11.6663 10.9881 11.5889 10.9107C11.5115 10.8333 11.4197 10.7719 11.3186 10.7301C11.2175 10.6882 11.1091 10.6666 10.9997 10.6666C10.8902 10.6666 10.7819 10.6882 10.6808 10.7301C10.5797 10.7719 10.4878 10.8333 10.4104 10.9107C10.333 10.9881 10.2717 11.08 10.2298 11.1811C10.1879 11.2822 10.1663 11.3905 10.1663 11.5V21.1666C10.1663 21.2761 10.1879 21.3844 10.2298 21.4855C10.2717 21.5866 10.333 21.6785 10.4104 21.7559C10.4878 21.8333 10.5797 21.8946 10.6808 21.9365C10.7819 21.9784 10.8902 22 10.9997 22C11.1091 22 11.2175 21.9784 11.3186 21.9365C11.4197 21.8946 11.5115 21.8333 11.5889 21.7559C11.6663 21.6785 11.7277 21.5866 11.7696 21.4855C11.8115 21.3844 11.833 21.2761 11.833 21.1666V11.5ZM15.9997 10.6666C16.4597 10.6666 16.833 11.04 16.833 11.5V21.1666C16.833 21.3876 16.7452 21.5996 16.5889 21.7559C16.4327 21.9122 16.2207 22 15.9997 22C15.7787 22 15.5667 21.9122 15.4104 21.7559C15.2541 21.5996 15.1663 21.3876 15.1663 21.1666V11.5C15.1663 11.04 15.5397 10.6666 15.9997 10.6666Z" />
    </symbol>
    <symbol viewBox="-2 10 35 10" fill="none" id='heart'>
        <path
            d="M15 27.525L12.825 25.545C5.1 18.54 0 13.905 0 8.25C0 3.615 3.63 0 8.25 0C10.86 0 13.365 1.215 15 3.12C16.635 1.215 19.14 0 21.75 0C26.37 0 30 3.615 30 8.25C30 13.905 24.9 18.54 17.175 25.545L15 27.525Z" />
    </symbol>
    <symbol viewBox="0 0 24 17" id='burger'>
        <path
            d="M1.33333 16.5H22.6667C23.4 16.5 24 15.9 24 15.1667C24 14.4333 23.4 13.8333 22.6667 13.8333H1.33333C0.6 13.8333 0 14.4333 0 15.1667C0 15.9 0.6 16.5 1.33333 16.5ZM1.33333 9.83333H22.6667C23.4 9.83333 24 9.23333 24 8.5C24 7.76667 23.4 7.16667 22.6667 7.16667H1.33333C0.6 7.16667 0 7.76667 0 8.5C0 9.23333 0.6 9.83333 1.33333 9.83333ZM0 1.83333C0 2.56667 0.6 3.16667 1.33333 3.16667H22.6667C23.4 3.16667 24 2.56667 24 1.83333C24 1.1 23.4 0.5 22.6667 0.5H1.33333C0.6 0.5 0 1.1 0 1.83333Z"
            fill="#111111" />
    </symbol>
    <symbol id="tiktok" fill="#000000" viewBox="0 0 24 24">
        <path
            d="M19.589 6.686a4.793 4.793 0 0 1-3.77-4.245V2h-3.445v13.672a2.896 2.896 0 0 1-5.201 1.743l-.002-.001.002.001a2.895 2.895 0 0 1 3.183-4.51v-3.5a6.329 6.329 0 0 0-5.394 10.692 6.33 6.33 0 0 0 10.857-4.424V8.687a8.182 8.182 0 0 0 4.773 1.526V6.79a4.831 4.831 0 0 1-1.003-.104z" />
    </symbol>
    <symbol id="facebook">
        <g clipPath="url(#clip0_808_272)">
            <g filter="url(#filter0_d_808_272)">
                <path
                    d="M29.3332 16.0001C29.3332 8.64008 23.3598 2.66675 15.9998 2.66675C8.63984 2.66675 2.6665 8.64008 2.6665 16.0001C2.6665 22.4534 7.25317 27.8267 13.3332 29.0667V20.0001H10.6665V16.0001H13.3332V12.6667C13.3332 10.0934 15.4265 8.00008 17.9998 8.00008H21.3332V12.0001H18.6665C17.9332 12.0001 17.3332 12.6001 17.3332 13.3334V16.0001H21.3332V20.0001H17.3332V29.2667C24.0665 28.6001 29.3332 22.9201 29.3332 16.0001Z"
                    fill="#111827" />
                <path
                    d="M10.1665 20.0001V20.5001H10.6665H12.8332V28.4394C7.28155 27.0254 3.1665 21.9963 3.1665 16.0001C3.1665 8.91622 8.91598 3.16675 15.9998 3.16675C23.0837 3.16675 28.8332 8.91622 28.8332 16.0001C28.8332 22.471 24.0483 27.8157 17.8332 28.7028V20.5001H21.3332H21.8332V20.0001V16.0001V15.5001H21.3332H17.8332V13.3334C17.8332 12.8762 18.2093 12.5001 18.6665 12.5001H21.3332H21.8332V12.0001V8.00008V7.50008H21.3332H17.9998C15.1504 7.50008 12.8332 9.81727 12.8332 12.6667V15.5001H10.6665H10.1665V16.0001V20.0001Z"
                    stroke="black" />
            </g>
        </g>
        <defs>
            <clipPath id="clip0_808_272">
                <rect width="32" height="32" fill="white" />
            </clipPath>
        </defs>
    </symbol>
    <symbol id='telegram' fill="none">
        <path
            d="M16.3333 3C8.97333 3 3 8.97333 3 16.3333C3 23.6933 8.97333 29.6667 16.3333 29.6667C23.6933 29.6667 29.6667 23.6933 29.6667 16.3333C29.6667 8.97333 23.6933 3 16.3333 3ZM22.52 12.0667C22.32 14.1733 21.4533 19.2933 21.0133 21.6533C20.8267 22.6533 20.4533 22.9867 20.1067 23.0267C19.3333 23.0933 18.7467 22.52 18 22.0267C16.8267 21.2533 16.16 20.7733 15.0267 20.0267C13.7067 19.16 14.56 18.68 15.32 17.9067C15.52 17.7067 18.9333 14.6 19 14.32C19.0093 14.2776 19.008 14.2336 18.9964 14.1917C18.9848 14.1499 18.9631 14.1116 18.9333 14.08C18.8533 14.0133 18.7467 14.04 18.6533 14.0533C18.5333 14.08 16.6667 15.32 13.0267 17.7733C12.4933 18.1333 12.0133 18.32 11.5867 18.3067C11.1067 18.2933 10.2 18.04 9.52 17.8133C8.68 17.5467 8.02667 17.4 8.08 16.9333C8.10667 16.6933 8.44 16.4533 9.06667 16.2C12.96 14.5067 15.5467 13.3867 16.84 12.8533C20.5467 11.3067 21.3067 11.04 21.8133 11.04C21.92 11.04 22.1733 11.0667 22.3333 11.2C22.4667 11.3067 22.5067 11.4533 22.52 11.56C22.5067 11.64 22.5333 11.88 22.52 12.0667Z"
            fill="#111827" />
    </symbol>
    <symbol fill="none" id="viber">
        <path fill-rule="evenodd" clip-rule="evenodd"
            d="M22.2345 3.50406C18.0396 2.56635 13.6894 2.56635 9.49451 3.50406L9.04251 3.60406C7.86253 3.86788 6.77879 4.45364 5.91167 5.29628C5.04455 6.13892 4.428 7.20545 4.13051 8.37739C3.06717 12.5674 3.06717 16.9567 4.13051 21.1467C4.41421 22.2644 4.98838 23.2872 5.79482 24.1114C6.60126 24.9357 7.61129 25.532 8.72251 25.8401L9.34251 29.5414C9.3623 29.6589 9.41324 29.769 9.49002 29.8602C9.5668 29.9513 9.66662 30.0202 9.77908 30.0597C9.89154 30.0992 10.0125 30.1078 10.1294 30.0847C10.2464 30.0615 10.3549 30.0074 10.4438 29.9281L14.0852 26.6707C16.8186 26.8375 19.562 26.6189 22.2345 26.0214L22.6878 25.9214C23.8678 25.6576 24.9516 25.0718 25.8187 24.2292C26.6858 23.3865 27.3024 22.32 27.5998 21.1481C28.6631 16.958 28.6631 12.5688 27.5998 8.37873C27.3023 7.20662 26.6855 6.13997 25.8181 5.29731C24.9508 4.45465 23.8667 3.86899 22.6865 3.60539L22.2345 3.50406ZM10.6198 8.26939C10.372 8.23333 10.1194 8.2832 9.90384 8.41073H9.88518C9.38518 8.70406 8.93451 9.07339 8.55051 9.50806C8.23051 9.87739 8.05718 10.2507 8.01184 10.6107C7.98518 10.8241 8.00384 11.0401 8.06651 11.2441L8.09051 11.2574C8.45051 12.3147 8.91984 13.3321 9.49318 14.2894C10.2324 15.634 11.1422 16.8777 12.1998 17.9894L12.2318 18.0347L12.2825 18.0721L12.3132 18.1081L12.3505 18.1401C13.4661 19.2009 14.7127 20.115 16.0598 20.8601C17.5998 21.6987 18.5345 22.0947 19.0958 22.2601V22.2681C19.2598 22.3187 19.4092 22.3414 19.5598 22.3414C20.0379 22.3061 20.4904 22.1117 20.8452 21.7894C21.2785 21.4054 21.6452 20.9534 21.9305 20.4507V20.4414C22.1985 19.9347 22.1078 19.4574 21.7212 19.1334C20.9445 18.4548 20.1047 17.852 19.2132 17.3334C18.6158 17.0094 18.0092 17.2054 17.7638 17.5334L17.2398 18.1947C16.9705 18.5227 16.4825 18.4774 16.4825 18.4774L16.4692 18.4854C12.8278 17.5561 11.8558 13.8694 11.8558 13.8694C11.8558 13.8694 11.8105 13.3681 12.1478 13.1121L12.8038 12.5841C13.1185 12.3281 13.3372 11.7227 12.9998 11.1254C12.4847 10.2331 11.8831 9.3935 11.2038 8.61873C11.0557 8.43639 10.8479 8.3122 10.6172 8.26806L10.6198 8.26939ZM16.7718 6.66673C16.595 6.66673 16.4255 6.73697 16.3004 6.86199C16.1754 6.98701 16.1052 7.15658 16.1052 7.33339C16.1052 7.5102 16.1754 7.67977 16.3004 7.8048C16.4255 7.92982 16.595 8.00006 16.7718 8.00006C18.4585 8.00006 19.8585 8.55073 20.9665 9.60673C21.5358 10.1841 21.9798 10.8681 22.2705 11.6174C22.5625 12.3681 22.6958 13.1694 22.6612 13.9721C22.6575 14.0596 22.6711 14.147 22.7012 14.2293C22.7313 14.3116 22.7773 14.3872 22.8366 14.4517C22.9564 14.5819 23.123 14.6593 23.2998 14.6667C23.4767 14.6742 23.6492 14.611 23.7794 14.4913C23.9097 14.3715 23.9871 14.2049 23.9945 14.0281C24.0359 13.0407 23.872 12.0555 23.5132 11.1347C23.1528 10.2096 22.6064 9.36822 21.9078 8.66273L21.8945 8.64939C20.5198 7.33606 18.7798 6.66673 16.7718 6.66673ZM16.7265 8.85873C16.5497 8.85873 16.3801 8.92897 16.2551 9.05399C16.1301 9.17901 16.0598 9.34858 16.0598 9.52539C16.0598 9.70221 16.1301 9.87177 16.2551 9.9968C16.3801 10.1218 16.5497 10.1921 16.7265 10.1921H16.7492C17.9652 10.2787 18.8505 10.6841 19.4705 11.3494C20.1065 12.0347 20.4358 12.8867 20.4105 13.9401C20.4064 14.1169 20.4728 14.2881 20.5949 14.416C20.7171 14.5439 20.885 14.618 21.0618 14.6221C21.2387 14.6261 21.4098 14.5598 21.5377 14.4376C21.6656 14.3155 21.7398 14.1475 21.7438 13.9707C21.7758 12.5881 21.3305 11.3947 20.4478 10.4427V10.4401C19.5452 9.47206 18.3065 8.96006 16.8158 8.86006L16.7932 8.85739L16.7265 8.85873ZM16.7012 11.0921C16.612 11.0842 16.5221 11.0944 16.4369 11.122C16.3517 11.1496 16.2729 11.1942 16.2053 11.2529C16.1377 11.3117 16.0826 11.3834 16.0434 11.4639C16.0041 11.5444 15.9815 11.632 15.9768 11.7215C15.9722 11.8109 15.9856 11.9004 16.0162 11.9845C16.0469 12.0687 16.0942 12.1458 16.1554 12.2112C16.2165 12.2767 16.2902 12.3291 16.3721 12.3655C16.4539 12.4018 16.5423 12.4213 16.6318 12.4227C17.1892 12.4521 17.5452 12.6201 17.7692 12.8454C17.9945 13.0721 18.1625 13.4361 18.1932 14.0054C18.1948 14.0949 18.2145 14.1831 18.251 14.2648C18.2875 14.3465 18.34 14.42 18.4055 14.481C18.471 14.542 18.5481 14.5891 18.6322 14.6196C18.7163 14.6502 18.8057 14.6635 18.8951 14.6587C18.9844 14.654 19.0719 14.6313 19.1523 14.592C19.2327 14.5527 19.3044 14.4977 19.3631 14.4301C19.4217 14.3626 19.4662 14.2839 19.4938 14.1988C19.5215 14.1137 19.5317 14.0239 19.5238 13.9347C19.4812 13.1347 19.2305 12.4281 18.7172 11.9081C18.2012 11.3881 17.4985 11.1347 16.7012 11.0921Z"
            fill="#111827" />
    </symbol>
    <symbol viewBox="0 0 302.967 302.967" id="question">
        <g>
            <g>
                <g>
                    <path style={{ fill: '#010002' }} d="M151.483,302.967C67.956,302.967,0,235.017,0,151.483S67.956,0,151.483,0
				s151.483,67.956,151.483,151.483S235.017,302.967,151.483,302.967z M151.483,24.416c-70.066,0-127.067,57.001-127.067,127.067
				s57.001,127.067,127.067,127.067s127.067-57.001,127.067-127.067S221.555,24.416,151.483,24.416z" />
                </g>
                <g>
                    <g>
                        <path style={{ fill: '#010002' }} d="M116.586,118.12c1.795-4.607,4.297-8.588,7.511-11.961c3.225-3.389,7.114-6.016,11.667-7.898
					c4.547-1.904,9.633-2.845,15.262-2.845c7.261,0,13.32,0.995,18.183,2.997c4.857,1.996,8.768,4.482,11.738,7.441
					c2.964,2.97,5.091,6.168,6.369,9.584c1.273,3.432,1.915,6.636,1.915,9.595c0,4.901-0.642,8.947-1.915,12.118
					c-1.278,3.171-2.866,5.88-4.759,8.131c-1.898,2.252-3.987,4.172-6.293,5.755c-2.295,1.588-4.471,3.171-6.516,4.759
					c-2.045,1.583-3.862,3.394-5.445,5.439c-1.588,2.04-2.589,4.601-2.991,7.664v5.831H140.6v-6.908
					c0.305-4.395,1.153-8.072,2.529-11.036c1.382-2.964,2.991-5.499,4.83-7.598c1.844-2.089,3.786-3.911,5.836-5.445
					c2.04-1.539,3.927-3.073,5.673-4.591c1.73-1.545,3.144-3.225,4.221-5.069c1.071-1.833,1.556-4.15,1.452-6.908
					c0-4.705-1.148-8.18-3.454-10.427c-2.295-2.257-5.493-3.378-9.589-3.378c-2.758,0-5.134,0.533-7.131,1.605
					s-3.628,2.513-4.911,4.302c-1.278,1.795-2.225,3.894-2.834,6.288c-0.615,2.415-0.919,4.982-0.919,7.756h-22.55
					C113.85,127.785,114.791,122.732,116.586,118.12z M162.536,183.938v23.616h-24.09v-23.616H162.536z" />
                    </g>
                </g>
            </g>
        </g>
    </symbol>
    <symbol viewBox="0 0 24 24" id="close">
        <path
            d="M20.616 0L12 8.616L3.384 0L0 3.384L8.616 12L0 20.616L3.384 24L12 15.384L20.616 24L24 20.616L15.384 12L24 3.384L20.616 0Z" />
    </symbol>
    <symbol viewBox="0 0 16 16" fill="none" id='history'>
        <path
            d="M14.6673 6.66673V10.0001C14.6673 13.3334 13.334 14.6667 10.0007 14.6667H6.00065C2.66732 14.6667 1.33398 13.3334 1.33398 10.0001V6.00006C1.33398 2.66673 2.66732 1.3334 6.00065 1.3334H9.33398"
            stroke-width="1.5" stroke-linecap="round" stroke-linejoin="round" />
        <path d="M14.6663 6.66673H11.9997C9.99967 6.66673 9.33301 6.00006 9.33301 4.00006V1.3334L14.6663 6.66673Z"
            stroke-width="1.5" stroke-linecap="round" stroke-linejoin="round" />
        <path d="M4.66699 8.66666H8.66699" stroke-width="1.5" stroke-linecap="round" stroke-linejoin="round" />
        <path d="M4.66699 11.3333H7.33366" stroke-width="1.5" stroke-linecap="round" stroke-linejoin="round" />
    </symbol>
    <symbol viewBox="0 0 16 16" fill="none" id="dashboard">
        <path d="M1.33398 1.33331H14.6673V14.6666H1.33398V1.33331Z" stroke-width="1.5" stroke-linecap="round"
            stroke-linejoin="round" />
        <path d="M1.33398 4.66665H14.6673" stroke-width="1.5" stroke-linecap="round" stroke-linejoin="round" />
        <path d="M1.33398 8H14.6673" stroke-width="1.5" stroke-linecap="round" stroke-linejoin="round" />
        <path d="M4.00065 1.33331V4.66665" stroke-width="1.5" stroke-linecap="round" stroke-linejoin="round" />
        <path d="M8.00065 1.33331V4.66665" stroke-width="1.5" stroke-linecap="round" stroke-linejoin="round" />
        <path d="M12.0007 1.33331V4.66665" stroke-width="1.5" stroke-linecap="round" stroke-linejoin="round" />
    </symbol>
    <symbol viewBox="0 0 16 16" fill="none" id="exit">
        <path
            d="M5.93359 5.03998C6.14026 2.63998 7.37359 1.65998 10.0736 1.65998H10.1603C13.1403 1.65998 14.3336 2.85331 14.3336 5.83331V10.18C14.3336 13.16 13.1403 14.3533 10.1603 14.3533H10.0736C7.39359 14.3533 6.16026 13.3866 5.94026 11.0266"
            stroke-width="1.5" stroke-linecap="round" stroke-linejoin="round" />
        <path d="M10.0007 7.99995H2.41406" stroke-width="1.5" stroke-linecap="round" stroke-linejoin="round" />
        <path d="M3.90033 5.76662L1.66699 7.99996L3.90033 10.2333" stroke-width="1.5" stroke-linecap="round"
            stroke-linejoin="round" />
    </symbol>
    <symbol width="28" height="28" viewBox="0 0 28 28" fill="none" id='product'>
        <path
            d="M22 19V21H23.748C22.639 22.5498 21.1758 23.8121 19.4802 24.6818C17.7845 25.5515 15.9057 26.0035 14 26C7.383 26 2 20.617 2 14H0C0 21.72 6.28 28 14 28C18.355 28 22.374 25.999 25 22.655V24H27V19H22Z"
            fill="white" />
        <path
            d="M20.505 9.63701L14.516 6.13701C14.3631 6.0476 14.1892 6.00039 14.0121 6.00022C13.835 6.00004 13.6611 6.0469 13.508 6.13601L7.497 9.63601C7.34584 9.72399 7.22039 9.85007 7.13318 10.0017C7.04597 10.1533 7.00005 10.3251 7 10.5V17.5C7.00005 17.6749 7.04597 17.8467 7.13318 17.9983C7.22039 18.15 7.34584 18.276 7.497 18.364L13.508 21.864C13.6567 21.9529 13.8267 21.9999 14 22C14.174 22 14.36 21.955 14.516 21.863L20.505 18.363C20.6556 18.2749 20.7806 18.1488 20.8674 17.9974C20.9543 17.846 21 17.6745 21 17.5V10.5C21 10.3255 20.9543 10.154 20.8674 10.0026C20.7806 9.85119 20.6556 9.72515 20.505 9.63701ZM14.011 8.15701L18.018 10.5L14.011 12.842L9.988 10.5L14.011 8.15701ZM9 12.24L13 14.57V19.255L9 16.925V12.24ZM15 19.265V14.582L19 12.244V16.927L15 19.265Z"
            fill="white" />
        <path
            d="M14 1.3206e-05C11.881 -0.00290212 9.78909 0.476905 7.88314 1.40302C5.97719 2.32914 4.30724 3.67724 3 5.34501V4.00001H1V9.00001H6V7.00001H4.252C5.36098 5.45027 6.82422 4.18796 8.51983 3.31823C10.2154 2.44851 12.0943 1.99655 14 2.00001C20.617 2.00001 26 7.38301 26 14H28C28 6.28001 21.72 1.3206e-05 14 1.3206e-05Z"
            fill="white" />
    </symbol>
    <symbol width="28" height="29" viewBox="0 0 28 29" fill="none" id='category'>
        <path
            d="M25 20.141V16C25 15.4696 24.7893 14.9609 24.4142 14.5858C24.0392 14.2107 23.5304 14 23 14H15V10H17C17.5303 9.99947 18.0387 9.78859 18.4136 9.41363C18.7886 9.03867 18.9995 8.53027 19 8V2C18.9995 1.46973 18.7886 0.961329 18.4136 0.586371C18.0387 0.211413 17.5303 0.000529477 17 0H11C10.4697 0.000529477 9.96134 0.211413 9.58638 0.586371C9.21142 0.961329 9.00054 1.46973 9.00001 2V8C9.00054 8.53027 9.21142 9.03867 9.58638 9.41363C9.96134 9.78859 10.4697 9.99947 11 10H13V14H5.00001C4.46958 14 3.96087 14.2107 3.5858 14.5858C3.21072 14.9609 3.00001 15.4696 3.00001 16V20.142C2.05735 20.3854 1.23582 20.9642 0.689408 21.77C0.142996 22.5758 -0.0907835 23.5532 0.031891 24.519C0.154565 25.4848 0.625271 26.3727 1.35578 27.0163C2.08628 27.6599 3.02644 28.015 4.00001 28.015C4.97358 28.015 5.91374 27.6599 6.64424 27.0163C7.37475 26.3727 7.84545 25.4848 7.96813 24.519C8.0908 23.5532 7.85702 22.5758 7.31061 21.77C6.7642 20.9642 5.94267 20.3854 5.00001 20.142V16H13V20.142C12.0574 20.3854 11.2358 20.9642 10.6894 21.77C10.143 22.5758 9.90922 23.5532 10.0319 24.519C10.1546 25.4848 10.6253 26.3727 11.3558 27.0163C12.0863 27.6599 13.0264 28.015 14 28.015C14.9736 28.015 15.9137 27.6599 16.6442 27.0163C17.3747 26.3727 17.8455 25.4848 17.9681 24.519C18.0908 23.5532 17.857 22.5758 17.3106 21.77C16.7642 20.9642 15.9427 20.3854 15 20.142V16H23V20.141C22.0574 20.3844 21.2358 20.9632 20.6894 21.769C20.143 22.5748 19.9092 23.5522 20.0319 24.518C20.1546 25.4838 20.6253 26.3717 21.3558 27.0153C22.0863 27.6589 23.0264 28.014 24 28.014C24.9736 28.014 25.9137 27.6589 26.6442 27.0153C27.3747 26.3717 27.8455 25.4838 27.9681 24.518C28.0908 23.5522 27.857 22.5748 27.3106 21.769C26.7642 20.9632 25.9427 20.3844 25 20.141ZM11 2H17L17.001 8H11V2ZM6.00001 24C6.00001 24.3956 5.88271 24.7822 5.66295 25.1111C5.44319 25.44 5.13083 25.6964 4.76538 25.8478C4.39992 25.9991 3.99779 26.0387 3.60983 25.9616C3.22187 25.8844 2.8655 25.6939 2.5858 25.4142C2.30609 25.1345 2.11561 24.7781 2.03844 24.3902C1.96127 24.0022 2.00087 23.6001 2.15225 23.2346C2.30363 22.8692 2.55997 22.5568 2.88887 22.3371C3.21777 22.1173 3.60445 22 4.00001 22C4.53028 22.0005 5.03868 22.2114 5.41364 22.5864C5.7886 22.9613 5.99948 23.4697 6.00001 24ZM16 24C16 24.3956 15.8827 24.7822 15.6629 25.1111C15.4432 25.44 15.1308 25.6964 14.7654 25.8478C14.3999 25.9991 13.9978 26.0387 13.6098 25.9616C13.2219 25.8844 12.8655 25.6939 12.5858 25.4142C12.3061 25.1345 12.1156 24.7781 12.0384 24.3902C11.9613 24.0022 12.0009 23.6001 12.1523 23.2346C12.3036 22.8692 12.56 22.5568 12.8889 22.3371C13.2178 22.1173 13.6044 22 14 22C14.5302 22.0008 15.0384 22.2118 15.4133 22.5867C15.7882 22.9616 15.9992 23.4698 16 24ZM24 26C23.6044 26 23.2178 25.8827 22.8889 25.6629C22.56 25.4432 22.3036 25.1308 22.1523 24.7654C22.0009 24.3999 21.9613 23.9978 22.0384 23.6098C22.1156 23.2219 22.3061 22.8655 22.5858 22.5858C22.8655 22.3061 23.2219 22.1156 23.6098 22.0384C23.9978 21.9613 24.3999 22.0009 24.7654 22.1522C25.1308 22.3036 25.4432 22.56 25.6629 22.8889C25.8827 23.2178 26 23.6044 26 24C25.9995 24.5303 25.7886 25.0387 25.4136 25.4136C25.0387 25.7886 24.5303 25.9995 24 26Z"
            fill="white" />
    </symbol>
    <symbol width="32" height="32" viewBox="0 0 32 32" fill="none" id='users'>
        <path
            d="M22.4 30.912V31.9787H23.4667V30.912H22.4ZM1.06667 30.912H0V31.9787H1.06667V30.912ZM30.9333 30.9333V32H32V30.9333H30.9333ZM17.0667 7.4624C17.0664 8.1625 16.9282 8.8557 16.66 9.5024C16.3919 10.1491 15.9989 10.7367 15.5037 11.2315C15.0084 11.7264 14.4206 12.1188 13.7737 12.3865C13.1267 12.6541 12.4334 12.7917 11.7333 12.7915V14.9248C15.8571 14.9248 19.2 11.584 19.2 7.4624H17.0667ZM11.7333 12.7915C11.0332 12.7917 10.3399 12.6541 9.69301 12.3865C9.04609 12.1188 8.45823 11.7264 7.96298 11.2315C7.46774 10.7367 7.07481 10.1491 6.80663 9.5024C6.53845 8.8557 6.40028 8.1625 6.4 7.4624H4.26667C4.26695 8.44266 4.4603 9.41326 4.83569 10.3188C5.21107 11.2243 5.76114 12.0471 6.45449 12.74C7.14783 13.4329 7.97087 13.9825 8.87662 14.3574C9.78236 14.7323 10.7531 14.9251 11.7333 14.9248V12.7915ZM6.4 7.4624C6.40028 6.7623 6.53845 6.06911 6.80663 5.4224C7.07481 4.7757 7.46774 4.18815 7.96298 3.6933C8.45823 3.19845 9.04609 2.80599 9.69301 2.53833C10.3399 2.27067 11.0332 2.13305 11.7333 2.13333V3.04964e-07C10.7531 -0.000279888 9.78236 0.192519 8.87662 0.567388C7.97087 0.942257 7.14783 1.49185 6.45449 2.1848C5.76114 2.87775 5.21107 3.70048 4.83569 4.60601C4.4603 5.51154 4.26695 6.48214 4.26667 7.4624H6.4ZM11.7333 2.13333C13.1471 2.13333 14.503 2.69465 15.5031 3.69392C16.5031 4.69319 17.0655 6.04865 17.0667 7.4624H19.2C19.1997 6.48214 19.0064 5.51154 18.631 4.60601C18.2556 3.70048 17.7055 2.87775 17.0122 2.1848C16.3188 1.49185 15.4958 0.942257 14.59 0.567388C13.6843 0.192519 12.7136 -0.000279888 11.7333 3.04964e-07V2.13333ZM22.4 29.8453H1.06667V31.9787H22.4V29.8453ZM2.13333 30.912V26.656H0V30.912H2.13333ZM7.46667 21.3205H16V19.1872H7.46667V21.3205ZM21.3333 26.6539V30.912H23.4667V26.6539H21.3333ZM16 21.3205C17.4145 21.3205 18.771 21.8824 19.7712 22.8826C20.7714 23.8828 21.3333 25.2394 21.3333 26.6539H23.4667C23.4667 24.6736 22.68 22.7744 21.2797 21.3741C19.8795 19.9739 17.9803 19.1872 16 19.1872V21.3205ZM2.13333 26.656C2.13333 25.2415 2.69524 23.8828 3.69543 22.8826C4.69562 21.8824 6.05218 21.3205 7.46667 21.3205V19.1872C5.48638 19.1872 3.58721 19.9739 2.18694 21.3741C0.786664 22.7744 0 24.6757 0 26.656H2.13333ZM29.8667 27.7333V30.9333H32V27.7333H29.8667ZM30.9333 29.8667H25.6V32H30.9333V29.8667ZM25.6 23.4667C26.7316 23.4667 27.8168 23.9162 28.617 24.7163C29.4171 25.5165 29.8667 26.6017 29.8667 27.7333H32C32 26.0359 31.3257 24.4081 30.1255 23.2078C28.9253 22.0076 27.2974 21.3333 25.6 21.3333V23.4667ZM24.5333 17.0667C23.6846 17.0667 22.8707 16.7295 22.2706 16.1294C21.6705 15.5293 21.3333 14.7154 21.3333 13.8667H19.2C19.2 15.2812 19.7619 16.6377 20.7621 17.6379C21.7623 18.6381 23.1188 19.2 24.5333 19.2V17.0667ZM27.7333 13.8667C27.7333 14.7154 27.3962 15.5293 26.7961 16.1294C26.196 16.7295 25.382 17.0667 24.5333 17.0667V19.2C25.9478 19.2 27.3044 18.6381 28.3046 17.6379C29.3048 16.6377 29.8667 15.2812 29.8667 13.8667H27.7333ZM24.5333 10.6667C25.382 10.6667 26.196 11.0038 26.7961 11.6039C27.3962 12.204 27.7333 13.018 27.7333 13.8667H29.8667C29.8667 12.4522 29.3048 11.0956 28.3046 10.0954C27.3044 9.09524 25.9478 8.53333 24.5333 8.53333V10.6667ZM24.5333 8.53333C23.1188 8.53333 21.7623 9.09524 20.7621 10.0954C19.7619 11.0956 19.2 12.4522 19.2 13.8667H21.3333C21.3333 13.018 21.6705 12.204 22.2706 11.6039C22.8707 11.0038 23.6846 10.6667 24.5333 10.6667V8.53333Z"
            fill="white" />
    </symbol>
    <symbol width="22" height="26" viewBox="0 0 22 26" fill="none" id='orders'>
        <path
            d="M7.00033 8.00004H15.0003M7.00033 13.3334H15.0003M7.00033 18.6667H12.3337M4.33366 1.33337H17.667C19.1398 1.33337 20.3337 2.52728 20.3337 4.00004V21.3334C20.3337 22.8061 19.1398 24 17.667 24H4.33366C2.8609 24 1.66699 22.8061 1.66699 21.3334V4.00004C1.66699 2.52728 2.8609 1.33337 4.33366 1.33337Z"
            stroke="white" strokeWidth="2.66667" strokeLinecap="round" />
    </symbol>
</svg>