<?xml version="1.0" encoding="UTF-8"?>
<svg xmlns="http://www.w3.org/2000/svg" style="display: none;">
    <symbol viewBox="0 0 36 36" id="cart">
        <path
            d="M35.7068 9.98438C35.6036 9.83782 35.4667 9.71821 35.3077 9.6356C35.1486 9.55299 34.972 9.50981 34.7928 9.5097H10.9169L9.1096 3.2772C8.40085 0.823008 6.71669 0.55807 6.02594 0.55807H1.207C0.589344 0.55807 0.0898438 1.05813 0.0898438 1.6752C0.0898438 2.29226 0.589906 2.79229 1.20697 2.79229H6.02534C6.17778 2.79229 6.64297 2.79229 6.96025 3.8886L13.1776 26.7379C13.3126 27.22 13.7519 27.5529 14.253 27.5529H29.4394C29.9108 27.5529 30.3315 27.2576 30.4908 26.8138L35.8435 11.0048C35.9667 10.6622 35.9155 10.2808 35.7068 9.98438H35.7068ZM28.6532 25.3193H15.101L11.5448 11.7445H33.2045L28.6532 25.3193ZM26.4376 29.8171C24.884 29.8171 23.6251 31.0759 23.6251 32.6296C23.6251 34.1832 24.884 35.4421 26.4376 35.4421C27.9912 35.4421 29.2501 34.1832 29.2501 32.6296C29.2501 31.0759 27.9912 29.8171 26.4376 29.8171ZM16.3126 29.8171C14.759 29.8171 13.5001 31.0759 13.5001 32.6296C13.5001 34.1832 14.759 35.4421 16.3126 35.4421C17.8662 35.4421 19.1251 34.1832 19.1251 32.6296C19.1251 31.0759 17.8662 29.8171 16.3126 29.8171Z"
            fill="#111827" />
    </symbol>
    <symbol viewBox="0 0 36 36" fill="none" id="user">
        <path
            d="M6 27C6 25.4087 6.63214 23.8826 7.75736 22.7574C8.88258 21.6321 10.4087 21 12 21H24C25.5913 21 27.1174 21.6321 28.2426 22.7574C29.3679 23.8826 30 25.4087 30 27C30 27.7956 29.6839 28.5587 29.1213 29.1213C28.5587 29.6839 27.7956 30 27 30H9C8.20435 30 7.44129 29.6839 6.87868 29.1213C6.31607 28.5587 6 27.7956 6 27Z"
            stroke-width="2" stroke-linejoin="round" />
        <path
            d="M18 15C20.4853 15 22.5 12.9853 22.5 10.5C22.5 8.01472 20.4853 6 18 6C15.5147 6 13.5 8.01472 13.5 10.5C13.5 12.9853 15.5147 15 18 15Z"
            stroke-width="2" />
    </symbol>
    <symbol viewBox="0 0 16 9" fill="none" id="arrow">
        <path d="M1.3335 1.33325L8.00016 7.99992L14.6668 1.33325" stroke="#111827" stroke-width="1.33333"
            stroke-linecap="round" stroke-linejoin="round" />
    </symbol>
    <symbol id="edit" viewBox="0 0 25 25">
        <path
            d="M22 13C22 12.7348 22.1054 12.4804 22.2929 12.2929C22.4804 12.1054 22.7348 12 23 12C23.2652 12 23.5196 12.1054 23.7071 12.2929C23.8946 12.4804 24 12.7348 24 13V24C24 24.2652 23.8946 24.5196 23.7071 24.7071C23.5196 24.8947 23.2652 25 23 25H1C0.734784 25 0.48043 24.8947 0.292893 24.7071C0.105357 24.5196 0 24.2652 0 24V2.00001C0 1.7348 0.105357 1.48044 0.292893 1.29291C0.48043 1.10537 0.734784 1.00001 1 1.00001H12C12.2652 1.00001 12.5196 1.10537 12.7071 1.29291C12.8946 1.48044 13 1.7348 13 2.00001C13 2.26523 12.8946 2.51958 12.7071 2.70712C12.5196 2.89465 12.2652 3.00001 12 3.00001H2V23H22V13Z" />
        <path
            d="M10.686 14.32L12.336 14.084L22.472 3.95001C22.5675 3.85776 22.6437 3.74742 22.6961 3.62542C22.7485 3.50341 22.7761 3.37219 22.7773 3.23941C22.7784 3.10663 22.7531 2.97495 22.7028 2.85206C22.6525 2.72916 22.5783 2.61751 22.4844 2.52362C22.3905 2.42972 22.2789 2.35547 22.156 2.30519C22.0331 2.25491 21.9014 2.22961 21.7686 2.23076C21.6358 2.23192 21.5046 2.2595 21.3826 2.31191C21.2606 2.36432 21.1502 2.4405 21.058 2.53601L10.92 12.67L10.684 14.32H10.686ZM23.886 1.12001C24.1648 1.39861 24.3859 1.72942 24.5368 2.09352C24.6877 2.45762 24.7654 2.84788 24.7654 3.24201C24.7654 3.63614 24.6877 4.0264 24.5368 4.39051C24.3859 4.75461 24.1648 5.08541 23.886 5.36401L13.516 15.734C13.3631 15.8875 13.1645 15.9872 12.95 16.018L9.65 16.49C9.49621 16.5121 9.33938 16.498 9.19197 16.449C9.04455 16.3999 8.9106 16.3171 8.80074 16.2073C8.69087 16.0974 8.60812 15.9635 8.55904 15.816C8.50997 15.6686 8.49591 15.5118 8.518 15.358L8.99 12.058C9.0203 11.8438 9.11925 11.6452 9.272 11.492L19.644 1.12201C20.2066 0.559599 20.9695 0.243652 21.765 0.243652C22.5605 0.243652 23.3234 0.559599 23.886 1.12201V1.12001Z" />
    </symbol>
    <symbol id="delete" viewBox="0 0 27 28">
        <path
            d="M10.833 4.99996V5.33329H16.1663V4.99996C16.1663 4.29272 15.8854 3.61444 15.3853 3.11434C14.8852 2.61424 14.2069 2.33329 13.4997 2.33329C12.7924 2.33329 12.1142 2.61424 11.6141 3.11434C11.114 3.61444 10.833 4.29272 10.833 4.99996ZM9.16634 5.33329V4.99996C9.16634 3.85069 9.62289 2.74849 10.4355 1.93583C11.2482 1.12317 12.3504 0.666626 13.4997 0.666626C14.6489 0.666626 15.7511 1.12317 16.5638 1.93583C17.3765 2.74849 17.833 3.85069 17.833 4.99996V5.33329H25.333C25.554 5.33329 25.766 5.42109 25.9223 5.57737C26.0785 5.73365 26.1663 5.94561 26.1663 6.16663C26.1663 6.38764 26.0785 6.5996 25.9223 6.75588C25.766 6.91216 25.554 6.99996 25.333 6.99996H23.3883L22.055 22.904C21.9537 24.1117 21.4024 25.2373 20.5102 26.0577C19.6181 26.8781 18.4503 27.3334 17.2383 27.3333H9.76101C8.54914 27.3332 7.38152 26.8778 6.48954 26.0575C5.59756 25.2371 5.0463 24.1116 4.94501 22.904L3.61167 6.99996H1.66634C1.44533 6.99996 1.23337 6.91216 1.07709 6.75588C0.920805 6.5996 0.833008 6.38764 0.833008 6.16663C0.833008 5.94561 0.920805 5.73365 1.07709 5.57737C1.23337 5.42109 1.44533 5.33329 1.66634 5.33329H9.16634ZM6.60567 22.7646C6.67204 23.5558 7.03321 24.2933 7.61761 24.8307C8.20202 25.3682 8.96702 25.6666 9.76101 25.6666H17.2383C18.0324 25.6667 18.7976 25.3685 19.3822 24.831C19.9667 24.2935 20.328 23.556 20.3943 22.7646L21.7157 6.99996H5.28367L6.60567 22.7646ZM11.833 11.5C11.833 11.3905 11.8115 11.2822 11.7696 11.1811C11.7277 11.08 11.6663 10.9881 11.5889 10.9107C11.5115 10.8333 11.4197 10.7719 11.3186 10.7301C11.2175 10.6882 11.1091 10.6666 10.9997 10.6666C10.8902 10.6666 10.7819 10.6882 10.6808 10.7301C10.5797 10.7719 10.4878 10.8333 10.4104 10.9107C10.333 10.9881 10.2717 11.08 10.2298 11.1811C10.1879 11.2822 10.1663 11.3905 10.1663 11.5V21.1666C10.1663 21.2761 10.1879 21.3844 10.2298 21.4855C10.2717 21.5866 10.333 21.6785 10.4104 21.7559C10.4878 21.8333 10.5797 21.8946 10.6808 21.9365C10.7819 21.9784 10.8902 22 10.9997 22C11.1091 22 11.2175 21.9784 11.3186 21.9365C11.4197 21.8946 11.5115 21.8333 11.5889 21.7559C11.6663 21.6785 11.7277 21.5866 11.7696 21.4855C11.8115 21.3844 11.833 21.2761 11.833 21.1666V11.5ZM15.9997 10.6666C16.4597 10.6666 16.833 11.04 16.833 11.5V21.1666C16.833 21.3876 16.7452 21.5996 16.5889 21.7559C16.4327 21.9122 16.2207 22 15.9997 22C15.7787 22 15.5667 21.9122 15.4104 21.7559C15.2541 21.5996 15.1663 21.3876 15.1663 21.1666V11.5C15.1663 11.04 15.5397 10.6666 15.9997 10.6666Z" />
    </symbol>
    <symbol viewBox="-2 10 35 10" fill="none" id='heart'>
        <path
            d="M15 27.525L12.825 25.545C5.1 18.54 0 13.905 0 8.25C0 3.615 3.63 0 8.25 0C10.86 0 13.365 1.215 15 3.12C16.635 1.215 19.14 0 21.75 0C26.37 0 30 3.615 30 8.25C30 13.905 24.9 18.54 17.175 25.545L15 27.525Z" />
    </symbol>
    <symbol viewBox="0 0 24 17" id='burger'>
        <path
            d="M1.33333 16.5H22.6667C23.4 16.5 24 15.9 24 15.1667C24 14.4333 23.4 13.8333 22.6667 13.8333H1.33333C0.6 13.8333 0 14.4333 0 15.1667C0 15.9 0.6 16.5 1.33333 16.5ZM1.33333 9.83333H22.6667C23.4 9.83333 24 9.23333 24 8.5C24 7.76667 23.4 7.16667 22.6667 7.16667H1.33333C0.6 7.16667 0 7.76667 0 8.5C0 9.23333 0.6 9.83333 1.33333 9.83333ZM0 1.83333C0 2.56667 0.6 3.16667 1.33333 3.16667H22.6667C23.4 3.16667 24 2.56667 24 1.83333C24 1.1 23.4 0.5 22.6667 0.5H1.33333C0.6 0.5 0 1.1 0 1.83333Z"
            fill="#111111" />
    </symbol>
    <symbol id="tiktok" fill="#000000" viewBox="0 0 24 24">
        <path
            d="M19.589 6.686a4.793 4.793 0 0 1-3.77-4.245V2h-3.445v13.672a2.896 2.896 0 0 1-5.201 1.743l-.002-.001.002.001a2.895 2.895 0 0 1 3.183-4.51v-3.5a6.329 6.329 0 0 0-5.394 10.692 6.33 6.33 0 0 0 10.857-4.424V8.687a8.182 8.182 0 0 0 4.773 1.526V6.79a4.831 4.831 0 0 1-1.003-.104z" />
    </symbol>
    <symbol id="facebook">
        <g clipPath="url(#clip0_808_272)">
            <g filter="url(#filter0_d_808_272)">
                <path
                    d="M29.3332 16.0001C29.3332 8.64008 23.3598 2.66675 15.9998 2.66675C8.63984 2.66675 2.6665 8.64008 2.6665 16.0001C2.6665 22.4534 7.25317 27.8267 13.3332 29.0667V20.0001H10.6665V16.0001H13.3332V12.6667C13.3332 10.0934 15.4265 8.00008 17.9998 8.00008H21.3332V12.0001H18.6665C17.9332 12.0001 17.3332 12.6001 17.3332 13.3334V16.0001H21.3332V20.0001H17.3332V29.2667C24.0665 28.6001 29.3332 22.9201 29.3332 16.0001Z"
                    fill="#111827" />
                <path
                    d="M10.1665 20.0001V20.5001H10.6665H12.8332V28.4394C7.28155 27.0254 3.1665 21.9963 3.1665 16.0001C3.1665 8.91622 8.91598 3.16675 15.9998 3.16675C23.0837 3.16675 28.8332 8.91622 28.8332 16.0001C28.8332 22.471 24.0483 27.8157 17.8332 28.7028V20.5001H21.3332H21.8332V20.0001V16.0001V15.5001H21.3332H17.8332V13.3334C17.8332 12.8762 18.2093 12.5001 18.6665 12.5001H21.3332H21.8332V12.0001V8.00008V7.50008H21.3332H17.9998C15.1504 7.50008 12.8332 9.81727 12.8332 12.6667V15.5001H10.6665H10.1665V16.0001V20.0001Z"
                    stroke="black" />
            </g>
        </g>
        <defs>
            <clipPath id="clip0_808_272">
                <rect width="32" height="32" fill="white" />
            </clipPath>
        </defs>
    </symbol>
    <symbol id='telegram' fill="none">
        <path
            d="M16.3333 3C8.97333 3 3 8.97333 3 16.3333C3 23.6933 8.97333 29.6667 16.3333 29.6667C23.6933 29.6667 29.6667 23.6933 29.6667 16.3333C29.6667 8.97333 23.6933 3 16.3333 3ZM22.52 12.0667C22.32 14.1733 21.4533 19.2933 21.0133 21.6533C20.8267 22.6533 20.4533 22.9867 20.1067 23.0267C19.3333 23.0933 18.7467 22.52 18 22.0267C16.8267 21.2533 16.16 20.7733 15.0267 20.0267C13.7067 19.16 14.56 18.68 15.32 17.9067C15.52 17.7067 18.9333 14.6 19 14.32C19.0093 14.2776 19.008 14.2336 18.9964 14.1917C18.9848 14.1499 18.9631 14.1116 18.9333 14.08C18.8533 14.0133 18.7467 14.04 18.6533 14.0533C18.5333 14.08 16.6667 15.32 13.0267 17.7733C12.4933 18.1333 12.0133 18.32 11.5867 18.3067C11.1067 18.2933 10.2 18.04 9.52 17.8133C8.68 17.5467 8.02667 17.4 8.08 16.9333C8.10667 16.6933 8.44 16.4533 9.06667 16.2C12.96 14.5067 15.5467 13.3867 16.84 12.8533C20.5467 11.3067 21.3067 11.04 21.8133 11.04C21.92 11.04 22.1733 11.0667 22.3333 11.2C22.4667 11.3067 22.5067 11.4533 22.52 11.56C22.5067 11.64 22.5333 11.88 22.52 12.0667Z"
            fill="#111827" />
    </symbol>
    <symbol fill="none" id="viber">
        <path fill-rule="evenodd" clip-rule="evenodd"
            d="M22.2345 3.50406C18.0396 2.56635 13.6894 2.56635 9.49451 3.50406L9.04251 3.60406C7.86253 3.86788 6.77879 4.45364 5.91167 5.29628C5.04455 6.13892 4.428 7.20545 4.13051 8.37739C3.06717 12.5674 3.06717 16.9567 4.13051 21.1467C4.41421 22.2644 4.98838 23.2872 5.79482 24.1114C6.60126 24.9357 7.61129 25.532 8.72251 25.8401L9.34251 29.5414C9.3623 29.6589 9.41324 29.769 9.49002 29.8602C9.5668 29.9513 9.66662 30.0202 9.77908 30.0597C9.89154 30.0992 10.0125 30.1078 10.1294 30.0847C10.2464 30.0615 10.3549 30.0074 10.4438 29.9281L14.0852 26.6707C16.8186 26.8375 19.562 26.6189 22.2345 26.0214L22.6878 25.9214C23.8678 25.6576 24.9516 25.0718 25.8187 24.2292C26.6858 23.3865 27.3024 22.32 27.5998 21.1481C28.6631 16.958 28.6631 12.5688 27.5998 8.37873C27.3023 7.20662 26.6855 6.13997 25.8181 5.29731C24.9508 4.45465 23.8667 3.86899 22.6865 3.60539L22.2345 3.50406ZM10.6198 8.26939C10.372 8.23333 10.1194 8.2832 9.90384 8.41073H9.88518C9.38518 8.70406 8.93451 9.07339 8.55051 9.50806C8.23051 9.87739 8.05718 10.2507 8.01184 10.6107C7.98518 10.8241 8.00384 11.0401 8.06651 11.2441L8.09051 11.2574C8.45051 12.3147 8.91984 13.3321 9.49318 14.2894C10.2324 15.634 11.1422 16.8777 12.1998 17.9894L12.2318 18.0347L12.2825 18.0721L12.3132 18.1081L12.3505 18.1401C13.4661 19.2009 14.7127 20.115 16.0598 20.8601C17.5998 21.6987 18.5345 22.0947 19.0958 22.2601V22.2681C19.2598 22.3187 19.4092 22.3414 19.5598 22.3414C20.0379 22.3061 20.4904 22.1117 20.8452 21.7894C21.2785 21.4054 21.6452 20.9534 21.9305 20.4507V20.4414C22.1985 19.9347 22.1078 19.4574 21.7212 19.1334C20.9445 18.4548 20.1047 17.852 19.2132 17.3334C18.6158 17.0094 18.0092 17.2054 17.7638 17.5334L17.2398 18.1947C16.9705 18.5227 16.4825 18.4774 16.4825 18.4774L16.4692 18.4854C12.8278 17.5561 11.8558 13.8694 11.8558 13.8694C11.8558 13.8694 11.8105 13.3681 12.1478 13.1121L12.8038 12.5841C13.1185 12.3281 13.3372 11.7227 12.9998 11.1254C12.4847 10.2331 11.8831 9.3935 11.2038 8.61873C11.0557 8.43639 10.8479 8.3122 10.6172 8.26806L10.6198 8.26939ZM16.7718 6.66673C16.595 6.66673 16.4255 6.73697 16.3004 6.86199C16.1754 6.98701 16.1052 7.15658 16.1052 7.33339C16.1052 7.5102 16.1754 7.67977 16.3004 7.8048C16.4255 7.92982 16.595 8.00006 16.7718 8.00006C18.4585 8.00006 19.8585 8.55073 20.9665 9.60673C21.5358 10.1841 21.9798 10.8681 22.2705 11.6174C22.5625 12.3681 22.6958 13.1694 22.6612 13.9721C22.6575 14.0596 22.6711 14.147 22.7012 14.2293C22.7313 14.3116 22.7773 14.3872 22.8366 14.4517C22.9564 14.5819 23.123 14.6593 23.2998 14.6667C23.4767 14.6742 23.6492 14.611 23.7794 14.4913C23.9097 14.3715 23.9871 14.2049 23.9945 14.0281C24.0359 13.0407 23.872 12.0555 23.5132 11.1347C23.1528 10.2096 22.6064 9.36822 21.9078 8.66273L21.8945 8.64939C20.5198 7.33606 18.7798 6.66673 16.7718 6.66673ZM16.7265 8.85873C16.5497 8.85873 16.3801 8.92897 16.2551 9.05399C16.1301 9.17901 16.0598 9.34858 16.0598 9.52539C16.0598 9.70221 16.1301 9.87177 16.2551 9.9968C16.3801 10.1218 16.5497 10.1921 16.7265 10.1921H16.7492C17.9652 10.2787 18.8505 10.6841 19.4705 11.3494C20.1065 12.0347 20.4358 12.8867 20.4105 13.9401C20.4064 14.1169 20.4728 14.2881 20.5949 14.416C20.7171 14.5439 20.885 14.618 21.0618 14.6221C21.2387 14.6261 21.4098 14.5598 21.5377 14.4376C21.6656 14.3155 21.7398 14.1475 21.7438 13.9707C21.7758 12.5881 21.3305 11.3947 20.4478 10.4427V10.4401C19.5452 9.47206 18.3065 8.96006 16.8158 8.86006L16.7932 8.85739L16.7265 8.85873ZM16.7012 11.0921C16.612 11.0842 16.5221 11.0944 16.4369 11.122C16.3517 11.1496 16.2729 11.1942 16.2053 11.2529C16.1377 11.3117 16.0826 11.3834 16.0434 11.4639C16.0041 11.5444 15.9815 11.632 15.9768 11.7215C15.9722 11.8109 15.9856 11.9004 16.0162 11.9845C16.0469 12.0687 16.0942 12.1458 16.1554 12.2112C16.2165 12.2767 16.2902 12.3291 16.3721 12.3655C16.4539 12.4018 16.5423 12.4213 16.6318 12.4227C17.1892 12.4521 17.5452 12.6201 17.7692 12.8454C17.9945 13.0721 18.1625 13.4361 18.1932 14.0054C18.1948 14.0949 18.2145 14.1831 18.251 14.2648C18.2875 14.3465 18.34 14.42 18.4055 14.481C18.471 14.542 18.5481 14.5891 18.6322 14.6196C18.7163 14.6502 18.8057 14.6635 18.8951 14.6587C18.9844 14.654 19.0719 14.6313 19.1523 14.592C19.2327 14.5527 19.3044 14.4977 19.3631 14.4301C19.4217 14.3626 19.4662 14.2839 19.4938 14.1988C19.5215 14.1137 19.5317 14.0239 19.5238 13.9347C19.4812 13.1347 19.2305 12.4281 18.7172 11.9081C18.2012 11.3881 17.4985 11.1347 16.7012 11.0921Z"
            fill="#111827" />
    </symbol>
</svg>