<?xml version="1.0" encoding="utf-8"?>
<!-- Generator: Adobe Illustrator 25.3.1, SVG Export Plug-In . SVG Version: 6.00 Build 0)  -->
<svg version="1.1" id="Шар_1" xmlns="http://www.w3.org/2000/svg" xmlns:xlink="http://www.w3.org/1999/xlink" x="0px" y="0px"
	 viewBox="0 0 350.97 112.25" style="enable-background:new 0 0 350.97 112.25;" xml:space="preserve">
<style type="text/css">
	.st0{fill:#EB3323;}
</style>
<g id="Слой_2">
	<g>
		<g id="Layer_1_8_">
			<path class="st0" d="M66,91.11V67.76H46.21v23.35H31.06l18.37,18.38c3.69,3.68,9.67,3.68,13.36,0l18.38-18.38H66z M21.13,81.21
				V31.05L2.77,49.42c-3.69,3.69-3.69,9.67,0,13.36L21.13,81.21z M46.19,21.11v23.34H66V21.11h15.17L62.77,2.77
				c-3.69-3.69-9.67-3.69-13.36,0L31.06,21.11H46.19z M109.43,49.39L91.07,31.05v50.11l18.38-18.38c3.71-3.65,3.75-9.62,0.1-13.32
				c-0.01-0.01-0.01-0.01-0.02-0.02c0,0,0,0-0.08,0L109.43,49.39z"/>
			<path class="st0" d="M158.5,26h-13.3v-9.32c0.07-2.28-1.72-4.19-4-4.26c0,0,0,0,0,0h-11.95v9.84h5.32v27.39h10.63V36.11h13.3
				v13.54h10.64V12.42H158.5V26z"/>
			<path class="st0" d="M193.6,11.89c-11.22,0-19.41,8.09-19.41,19.15s8.19,19.15,19.41,19.15S213,42.11,213,31
				S204.82,11.89,193.6,11.89z M193.6,39.82c-4.71,0.13-8.64-3.57-8.77-8.28c0,0,0,0,0-0.01c-0.01-0.16-0.01-0.33,0-0.49
				c-0.17-4.85,3.63-8.91,8.48-9.08s8.91,3.63,9.07,8.48V31c0.13,4.71-3.57,8.64-8.28,8.78L193.6,39.82z"/>
			<path class="st0" d="M245.93,30c2.68-1.61,4.3-4.52,4.26-7.64c0-5.75-3.72-9.9-11.11-9.9h-21v37.19h21
				c7.76,0,12.28-4.52,12.28-10.74C251.39,35.15,249.29,31.7,245.93,30z M227.93,20.76h7.92c2.5,0,3.94,1.22,3.94,3.3
				s-1.44,3.3-3.94,3.3h-7.92V20.76z M236.6,41.5h-8.67v-6.95h8.67c2.66,0,4.15,1.28,4.15,3.46s-1.46,3.45-4.12,3.45L236.6,41.5z"/>
			<path class="st0" d="M267.64,12.42L253,49.65h11.33l2.36-6.86h15l2.31,6.86h11.55l-14.72-37.23H267.64z M269.53,34.42l4.24-12.16
				h0.81l4.19,12.18L269.53,34.42z"/>
			<path class="st0" d="M165.09,61.46h-35.64v9.84h5.32v27.39h10.64V71.3h13.3v27.39h10.63v-33c0.21-2.13-1.34-4.02-3.47-4.23
				C165.61,61.43,165.35,61.43,165.09,61.46z"/>
			<path class="st0" d="M193.77,60.93c-11.22,0-19.42,8.08-19.42,19.14s8.2,19.15,19.42,19.15s19.45-8.11,19.45-19.11
				S205,60.93,193.77,60.93z M193.77,88.85c-4.85,0.01-8.78-3.92-8.79-8.77c-0.01-4.85,3.92-8.78,8.77-8.79
				c4.85-0.01,8.78,3.92,8.79,8.77l0,0c0.14,4.7-3.56,8.63-8.26,8.78L193.77,88.85z"/>
			<polygon class="st0" points="259.76,88.85 249.65,88.85 249.65,61.46 239.01,61.46 239.01,88.85 228.91,88.85 228.91,61.46 
				218.27,61.46 218.27,98.69 223.27,98.69 228.91,98.69 259.76,98.69 266.35,98.69 270.39,98.69 270.39,61.46 259.76,61.46 			"/>
			<polygon class="st0" points="311.61,71.3 311.61,61.46 275.45,61.46 275.45,71.3 288.21,71.3 288.21,98.69 298.85,98.69 
				298.85,71.3 			"/>
			<path class="st0" d="M339.43,98.69H351l-14.71-37.23H323.1l-14.68,37.23h11.35l2.36-6.86h15L339.43,98.69z M325,83.48l4.2-12.18
				h0.8l4.2,12.18H325z"/>
		</g>
	</g>
</g>
</svg>
